PathFileType	4	(X/Y/Z)	c:/Users/goper/Files/vsCode/490R/osim_files/A02/A02_Fast_01.trc
DataRate	CameraRate	NumFrames	NumMarkers	Units                	OrigDataRate	OrigDataStartFrame	OrigNumFrames
250.00	250.00	4	36	mm	250.0	2545	4071
                Frame#	Time	Mobility_markerset:LPSIS			Mobility_markerset:LASIS			Mobility_markerset:LTH1			Mobility_markerset:LTH2			Mobility_markerset:LTH3			Mobility_markerset:LTH4			Mobility_markerset:LLFE			Mobility_markerset:LMFE			Mobility_markerset:LSH1			Mobility_markerset:LSH2			Mobility_markerset:LSH3			Mobility_markerset:LSH4			Mobility_markerset:LLMAL			Mobility_markerset:LMMAL			Mobility_markerset:LCAL			Mobility_markerset:LMTP5			Mobility_markerset:LTOE			Mobility_markerset:LMTP1			Mobility_markerset:RPSIS			Mobility_markerset:RASIS			Mobility_markerset:RTH1			Mobility_markerset:RTH2			Mobility_markerset:RTH3			Mobility_markerset:RTH4			Mobility_markerset:RLFE			Mobility_markerset:RMFE			Mobility_markerset:RSH1			Mobility_markerset:RSH2			Mobility_markerset:RSH3			Mobility_markerset:RSH4			Mobility_markerset:RLMAL			Mobility_markerset:RMMAL			Mobility_markerset:RCAL			Mobility_markerset:RMTP1			Mobility_markerset:RTOE			Mobility_markerset:RMTP5		
		X1	Y1	Z1	X2	Y2	Z2	X3	Y3	Z3	X4	Y4	Z4	X5	Y5	Z5	X6	Y6	Z6	X7	Y7	Z7	X8	Y8	Z8	X9	Y9	Z9	X10	Y10	Z10	X11	Y11	Z11	X12	Y12	Z12	X13	Y13	Z13	X14	Y14	Z14	X15	Y15	Z15	X16	Y16	Z16	X17	Y17	Z17	X18	Y18	Z18	X19	Y19	Z19	X20	Y20	Z20	X21	Y21	Z21	X22	Y22	Z22	X23	Y23	Z23	X24	Y24	Z24	X25	Y25	Z25	X26	Y26	Z26	X27	Y27	Z27	X28	Y28	Z28	X29	Y29	Z29	X30	Y30	Z30	X31	Y31	Z31	X32	Y32	Z32	X33	Y33	Z33	X34	Y34	Z34	X35	Y35	Z35	X36	Y36	Z36

2545	10.17600	-1326.50488	939.87427	301.36398	-1471.97754	906.71851	373.73669	-1452.00952	651.59058	411.54565	0.00000	0.00000	0.00000	-1504.81006	681.10175	423.51096	0.00000	0.00000	0.00000	0.00000	0.00000	0.00000	0.00000	0.00000	0.00000	-1574.92871	382.05627	372.79736	-1594.66724	342.08740	380.86948	-1631.36780	405.40540	377.14969	-1643.91577	363.13852	385.08725	-1737.72266	126.97048	357.45795	-1744.66638	137.35213	273.91415	-1698.44019	63.92591	311.18347	-1845.18738	135.55219	376.02411	-1872.94336	184.47850	312.81400	-1863.77539	139.60144	266.86923	-1330.72925	955.51190	199.78716	-1485.08008	922.37415	130.34651	-1393.20618	626.50330	106.10873	-1386.31494	582.98267	108.04879	-1452.44226	609.78918	110.14902	-1436.82751	570.18207	109.25599	-1370.23315	469.81366	102.24170	-1386.26660	471.13016	235.95453	-1301.52246	298.45786	127.70865	-1292.19946	253.54201	139.69077	-1358.64246	280.79858	126.49517	-1340.97534	237.43340	134.64151	-1241.45898	95.64851	142.91188	-1250.68640	100.29746	225.80334	-1186.61450	80.33688	185.66225	-1371.81897	51.88730	225.58455	-1395.32458	61.72098	191.56750	-1365.76086	50.63566	134.19293
2546	10.18000	-1333.37866	938.21106	302.18985	-1479.14709	904.91003	373.92401	-1458.91455	649.85767	412.20224	-1488.76208	621.37793	417.67087	-1511.82031	679.22375	424.03165	0.00000	0.00000	0.00000	0.00000	0.00000	0.00000	0.00000	0.00000	0.00000	-1583.61414	380.40137	372.87552	-1604.28223	340.89816	380.94724	-1639.70056	404.91769	377.09891	-1653.04565	362.93924	385.04871	-1751.98438	128.63275	357.29144	-1758.42969	139.32304	273.72812	-1714.00391	64.77155	311.03027	-1859.52368	139.42644	375.38605	-1885.58325	189.42722	312.21429	-1877.37378	144.42500	266.15448	-1337.18994	953.78821	200.64615	-1490.87476	921.08197	131.14577	-1398.27600	625.66864	105.87326	-1391.05505	582.20270	107.80462	-1457.26807	608.36841	109.82923	-1441.28308	568.92017	108.99966	-1373.85059	469.16486	102.05623	-1390.02258	470.44193	235.76273	-1303.68530	298.47171	127.64902	-1293.95020	253.64735	139.63988	-1360.56555	280.28860	126.37141	-1342.45081	237.04239	134.55858	-1241.73132	95.94566	142.89990	-1251.17151	100.79568	225.86317	-1186.83398	80.81458	185.72015	-1371.95520	51.86177	225.58794	-1395.49878	61.61166	191.54276	-1365.87158	50.57242	134.17500
2547	10.18400	-1340.28418	936.61121	303.01920	-1486.33740	903.16632	373.95392	-1465.97021	648.23926	412.81989	-1495.51050	619.44464	418.21912	-1519.04736	677.36102	424.47150	0.00000	0.00000	0.00000	0.00000	0.00000	0.00000	0.00000	0.00000	0.00000	-1592.30286	378.68356	372.98132	-1613.68054	339.64795	380.99802	-1647.81335	404.42236	377.07840	-1662.04456	362.66245	385.02802	-1765.75476	130.21300	357.03064	-1771.74927	141.15038	273.51233	-1729.33215	65.27094	310.91595	-1873.22229	142.94125	374.70303	-1897.56445	194.06844	311.70026	-1890.38318	148.91591	265.49796	-1343.56519	952.16040	201.38441	-1497.22681	919.03326	130.57907	-1403.49756	624.75214	105.58928	-1395.90186	581.34302	107.52972	-1462.67249	607.50250	109.82578	-1445.93347	567.65143	108.71346	-1377.46362	468.55865	101.79679	-1393.80359	469.70047	235.55296	-1305.87634	298.41370	127.57613	-1295.40210	253.87456	139.43147	-1362.49280	279.75293	126.25612	-1344.08569	236.68918	134.46719	-1242.10193	96.21194	142.91267	-1251.36890	101.04531	225.86522	-1187.05579	81.27907	185.76041	-1372.12207	51.83576	225.56007	-1395.71497	61.52739	191.49716	-1365.95544	50.51473	134.18318
2548	10.18800	-1347.12695	934.89917	303.85037	-1493.43970	901.33478	374.01752	-1473.12000	646.64301	413.37726	-1499.48230	608.38708	410.36115	-1526.27478	675.70526	424.87726	-1543.43164	633.89960	418.48138	0.00000	0.00000	0.00000	0.00000	0.00000	0.00000	-1600.83191	377.00555	373.02158	-1622.94922	338.37012	380.91602	-1655.87805	403.65005	377.03259	-1670.88354	362.26395	384.99503	-1778.83655	131.57901	356.72974	-1784.57214	142.82146	273.15866	-1743.76208	65.86535	310.49741	-1886.21863	146.14479	373.99695	-1909.30200	198.24026	311.27197	-1902.71448	153.14018	264.79477	-1350.01794	950.38226	202.12595	-1503.20911	917.73236	131.45137	-1408.52429	623.88550	105.26690	-1400.48608	580.68439	106.99287	0.00000	0.00000	0.00000	-1450.66516	566.30762	108.51733	-1381.50525	467.76385	101.70403	-1398.54932	468.44485	234.65945	-1307.96936	298.44391	127.49126	-1297.19385	253.99384	139.37033	-1364.50012	279.23773	126.12680	-1345.73376	236.30829	134.37737	-1242.39282	96.62101	142.87947	-1251.79919	101.56740	225.88023	-1187.33264	81.84475	185.75211	-1372.21423	51.79476	225.56024	-1395.89771	61.41264	191.51013	-1366.06555	50.44461	134.19438
